<?xml version="1.0" encoding="UTF-8"?>
<svg xmlns="http://www.w3.org/2000/svg" xmlns:xlink="http://www.w3.org/1999/xlink" width="36px" height="20px" viewBox="0 0 35 20" version="1.1">
<g id="surface1">
<path style=" stroke:none;fill-rule:nonzero;fill:rgb(0%,0%,0%);fill-opacity:1;" d="M 29.195312 0.929688 C 29.191406 0.929688 29.035156 0.933594 28.847656 0.9375 C 28.660156 0.941406 28.382812 0.945312 28.238281 0.949219 L 27.96875 0.957031 L 27.890625 1.007812 C 27.777344 1.082031 27.671875 1.164062 27.265625 1.496094 C 26.878906 1.808594 26.855469 1.828125 26.53125 2.105469 C 26.367188 2.25 24.585938 3.726562 22.441406 5.5 C 20.769531 6.878906 19.8125 7.667969 18.367188 8.839844 C 17.28125 9.722656 17.09375 9.875 16.585938 10.320312 C 15.785156 11.019531 15.640625 11.148438 15.457031 11.304688 C 15.214844 11.511719 14.914062 11.753906 14.691406 11.921875 C 14.457031 12.105469 14.164062 12.316406 14.148438 12.316406 C 13.960938 12.3125 9.675781 12.324219 9.574219 12.328125 C 9.316406 12.339844 9.011719 12.308594 8.84375 12.253906 C 8.769531 12.230469 8.769531 12.230469 8.773438 12.207031 C 8.789062 12.148438 8.859375 11.941406 8.902344 11.847656 C 8.941406 11.75 9.136719 11.347656 9.152344 11.328125 C 9.15625 11.324219 9.289062 11.054688 9.453125 10.730469 C 9.792969 10.050781 9.96875 9.703125 10.296875 9.09375 C 10.554688 8.597656 10.839844 8.03125 10.957031 7.757812 C 11.0625 7.519531 11.144531 7.316406 11.136719 7.308594 C 11.125 7.296875 10.859375 7.429688 10.707031 7.523438 C 10.585938 7.597656 10.398438 7.730469 10.125 7.933594 C 9.980469 8.039062 9.78125 8.1875 9.675781 8.257812 C 9.429688 8.429688 9.214844 8.585938 8.824219 8.878906 C 8.167969 9.367188 6.738281 10.414062 4.65625 11.917969 C 2.769531 13.28125 2.710938 13.324219 2.015625 13.839844 C 1.410156 14.28125 1.085938 14.519531 0.917969 14.640625 C 0.875 14.667969 0.78125 14.730469 0.707031 14.777344 C 0.523438 14.890625 0.464844 14.9375 0.394531 15.007812 C 0.34375 15.0625 0.28125 15.160156 0.28125 15.191406 C 0.28125 15.199219 0.304688 15.203125 0.390625 15.203125 C 0.449219 15.203125 0.503906 15.207031 0.511719 15.207031 C 0.519531 15.210938 0.675781 15.214844 0.863281 15.21875 C 1.046875 15.222656 1.214844 15.226562 1.238281 15.226562 C 1.257812 15.230469 1.507812 15.230469 1.789062 15.234375 C 2.070312 15.238281 2.351562 15.242188 2.410156 15.246094 C 2.535156 15.25 8 15.25 8.097656 15.246094 C 8.132812 15.242188 8.304688 15.238281 8.476562 15.234375 C 8.648438 15.230469 8.792969 15.226562 8.796875 15.226562 C 8.808594 15.21875 9.648438 15.214844 9.796875 15.222656 C 10.074219 15.234375 10.464844 15.28125 10.464844 15.296875 C 10.464844 15.316406 10.414062 15.40625 10.375 15.453125 C 10.328125 15.515625 10.269531 15.570312 10.117188 15.683594 C 9.9375 15.820312 9.136719 16.492188 7.605469 17.785156 C 7.15625 18.160156 6.722656 18.523438 6.632812 18.589844 C 6.464844 18.71875 6.402344 18.777344 6.34375 18.871094 C 6.308594 18.929688 6.296875 18.964844 6.320312 18.964844 C 6.324219 18.964844 6.402344 18.96875 6.488281 18.976562 C 6.789062 19.003906 6.960938 19.007812 7.988281 19.007812 C 8.554688 19.007812 9.027344 19.011719 9.039062 19.011719 C 9.046875 19.015625 9.160156 19.019531 9.289062 19.023438 C 9.414062 19.027344 9.527344 19.03125 9.539062 19.035156 C 9.546875 19.035156 9.734375 19.039062 9.949219 19.039062 C 10.347656 19.046875 10.523438 19.039062 10.746094 19.015625 C 10.964844 18.988281 11.035156 18.953125 11.300781 18.703125 C 11.375 18.636719 11.558594 18.476562 11.710938 18.351562 C 12.085938 18.050781 12.472656 17.726562 13.117188 17.191406 C 13.90625 16.527344 14.261719 16.238281 14.625 15.941406 C 14.804688 15.792969 15.003906 15.625 15.066406 15.570312 C 15.335938 15.324219 15.414062 15.277344 15.582031 15.25 C 15.671875 15.234375 15.886719 15.238281 16.15625 15.253906 C 16.359375 15.269531 16.734375 15.269531 19.75 15.265625 C 21.601562 15.265625 23.144531 15.261719 23.175781 15.257812 C 23.25 15.25 23.417969 15.265625 23.496094 15.285156 C 23.570312 15.300781 23.707031 15.351562 23.707031 15.363281 C 23.707031 15.367188 23.691406 15.445312 23.671875 15.535156 C 23.585938 15.921875 23.476562 16.289062 23.195312 17.160156 C 22.917969 18.011719 22.832031 18.296875 22.742188 18.695312 C 22.6875 18.945312 22.683594 18.972656 22.695312 18.980469 C 22.730469 19.003906 23.007812 19.042969 23.242188 19.054688 C 23.398438 19.066406 23.996094 19.0625 24.0625 19.050781 C 24.085938 19.046875 24.371094 19.039062 24.78125 19.03125 C 25.183594 19.023438 25.542969 19.011719 25.585938 19.003906 C 25.609375 19 25.617188 18.984375 25.675781 18.824219 C 25.808594 18.480469 25.933594 18.105469 26.101562 17.578125 C 26.261719 17.066406 26.546875 16.117188 26.59375 15.941406 C 26.644531 15.730469 26.679688 15.617188 26.71875 15.53125 C 26.753906 15.457031 26.816406 15.351562 26.855469 15.3125 L 26.878906 15.285156 L 27.027344 15.285156 C 27.109375 15.285156 27.183594 15.285156 27.199219 15.28125 C 27.265625 15.273438 28.09375 15.269531 29.824219 15.269531 L 31.761719 15.269531 L 31.933594 15.128906 C 32.4375 14.71875 32.796875 14.390625 33.832031 13.382812 C 34.097656 13.128906 34.332031 12.898438 34.359375 12.875 C 34.386719 12.847656 34.421875 12.8125 34.4375 12.789062 C 34.453125 12.765625 34.5 12.71875 34.546875 12.679688 C 34.683594 12.570312 34.707031 12.535156 34.707031 12.453125 L 34.707031 12.40625 L 34.597656 12.40625 C 34.535156 12.40625 34.480469 12.40625 34.472656 12.402344 C 34.464844 12.402344 34.328125 12.398438 34.167969 12.394531 C 33.726562 12.386719 33.472656 12.378906 33.285156 12.375 C 33.195312 12.371094 32.878906 12.367188 32.585938 12.363281 C 32.292969 12.363281 32.019531 12.355469 31.984375 12.355469 C 31.945312 12.351562 31.03125 12.347656 29.953125 12.347656 C 27.855469 12.34375 27.9375 12.34375 27.820312 12.296875 C 27.796875 12.289062 27.777344 12.273438 27.773438 12.265625 C 27.773438 12.257812 27.800781 12.136719 27.835938 12 C 27.953125 11.527344 28.113281 10.980469 28.367188 10.175781 C 28.425781 9.984375 28.5 9.746094 28.535156 9.644531 C 28.710938 9.082031 30.042969 4.75 30.511719 3.222656 C 30.660156 2.734375 30.828125 2.210938 30.882812 2.054688 C 31.058594 1.542969 31.109375 1.34375 31.121094 1.089844 L 31.128906 0.984375 L 31.085938 0.976562 C 31.011719 0.96875 30.796875 0.953125 30.640625 0.949219 C 30.558594 0.945312 30.480469 0.941406 30.464844 0.9375 C 30.429688 0.933594 29.199219 0.921875 29.195312 0.929688 Z M 26.675781 5.957031 C 26.683594 6.121094 26.664062 6.210938 26.53125 6.621094 C 26.484375 6.777344 26.390625 7.070312 26.328125 7.273438 C 26.175781 7.757812 26.058594 8.121094 25.601562 9.542969 C 25.128906 11.003906 25.183594 10.835938 25.074219 11.214844 C 24.972656 11.566406 24.90625 11.773438 24.84375 11.941406 C 24.796875 12.0625 24.679688 12.308594 24.667969 12.316406 C 24.664062 12.320312 24.558594 12.324219 24.4375 12.328125 C 24.3125 12.332031 24.164062 12.335938 24.109375 12.339844 C 24.050781 12.339844 23.058594 12.34375 21.902344 12.34375 C 19.980469 12.347656 19.785156 12.34375 19.585938 12.332031 C 19.398438 12.316406 19.050781 12.28125 19.042969 12.273438 C 19.039062 12.269531 19.089844 12.167969 19.125 12.117188 C 19.183594 12.039062 19.25 11.972656 19.464844 11.796875 C 20.074219 11.289062 20.46875 10.960938 21.15625 10.398438 C 22.199219 9.539062 22.59375 9.210938 23.183594 8.707031 C 24.585938 7.511719 25.371094 6.859375 26.132812 6.257812 C 26.582031 5.902344 26.632812 5.863281 26.652344 5.863281 C 26.671875 5.867188 26.675781 5.871094 26.675781 5.957031 Z M 26.675781 5.957031 "/>
</g>
</svg>
