<svg enable-background="new 0 0 2500 2500" height="20" viewBox="0 0 2500 2500" width="20" xmlns="http://www.w3.org/2000/svg"><path d="m1921.9 1875.1c150.3 0 240.2-107.5 240.2-240.2s-89.9-240.2-240.2-240.2h-487.3v480.4zm0-837.3c132.3 0 212.8-95.2 212.8-212.7s-80.5-212.8-212.8-212.8h-487.3v425.5zm-1173.6 356.8v119h-301.9v-594.8h301.9v119h288.3v-425.6h-726.2v151h-301.9v-151-302h1913.4c299.4 0 542.2 242.7 542.2 542.2.2 131.5-47.6 258.5-134.4 357.3 100.1 102.6 161.8 243 161.8 397.7 0 314.6-255 569.6-569.6 569.6h-1913.4v-302-151h302v151h726.2v-480.4z"/></svg>