<svg enable-background="new 0 0 66.7 66.7" height="20" viewBox="0 0 66.7 66.7" width="20" xmlns="http://www.w3.org/2000/svg"><path d="m37.7 58.7c-.7.3-.7-.2-.3-.4 2.2-1 4-2.8 5.1-4.9-1.8 1.1-3.1.9-4.5 1.8s-2 2.7-3.6 3.8c1.8 1.8 3.2 2.3 4.2 2.3.8.1 1.6 0 2.4-.2 2-.4 3.7-1.4 5.3-1.7-3.5-1.2-6.7-1.4-8.6-.7z"/><path d="m30 61.7c-2.2.6-5.3 1.8-8.4 1.8.2.3.5.6.8.9.2.1.3.1.5.1 3.4-.7 6-2.1 8.9-2.9-.6 0-1.3 0-1.8.1z"/><path d="m47.7 56.5c-1.8.1-3.5.6-5.1 1.2 2-.2 4.6 2.1 7.6.1.4-.3 1.8-.9 2.5-1.3-1.2 0-2.9-.3-5 0z"/><path d="m41.1 57.2c3.2-.8 5.9-3.1 7.2-6.2-1.6 1.1-2.5.8-4.4 2.6-.7.7-1.5 2.7-2.8 3.6z"/><path d="m27.1 2.1c-3.6-.4-5.4.9-6.8 2.5.8 0 1.6 0 2.3-.1 1.7-.4 3.3-1.3 4.5-2.4z"/><path d="m19.1 7.3c1.4-.2 2.7-.8 3.8-1.7-2.1-.5-4.2.2-5.7 1.7.6.1 1.2.1 1.9 0z"/><path d="m11.7 10c1.4-1.2 2.4-2.7 3-4.4-2.5 1-4.2 3.2-4.6 5.9.1-.2 1-1 1.6-1.5z"/><path d="m12.7 10.1c.6 0 1.2 0 1.9-.1 1.3-.3 2.5-.9 3.5-1.9-2-.4-4.1.4-5.4 2z"/><path d="m14.8 11c-3.1.1-4.3 1.1-5.6 3.2.6-.2 1.2-.4 1.8-.6 1.4-.5 2.7-1.4 3.8-2.6z"/><path d="m20.2 2.7c-3.1 1-4.2 2.1-5 4.5 2.8-.9 3.9-2.3 5-4.5z"/><path d="m8.4 19.9c-2.5 1.3-4 4-3.6 6.8.3-.4.5-.9.8-1.3 1.3-1.6 2.2-3.5 2.8-5.5z"/><path d="m.9 35.1c.2.7.3 1.3.4 2 .4 2.9 3.4 4.1 4.6 5.1-1-2.8-2.7-5.3-5-7.1z"/><path d="m13.6 50.5c-.4-.8-.7-2.4-1.4-3.8-.7-1.1-1.4-2.2-2.2-3.2-.6 3.5 1.9 5.6 3.6 7z"/><path d="m19.2 54.3c-.9-.9-1.6-3.1-2.4-3.9-1.5-1.6-1.9-1.5-3.2-3 .4 3.1 2.6 5.8 5.6 6.9z"/><path d="m2.8 41.6c.1.3.6 1.2 1 2 1 2.2 3.2 3.4 5.5 4.1-1.3-2.5-3.8-4.5-6.5-6.1z"/><path d="m9.5 52.5c.3.2 1 .8 1.7 1.4 2.2 1.9 5 1 7.5 1.5-3.5-2.4-7-2.5-9.2-2.9z"/><path d="m6.2 47.7c.2.2.8 1.1 1.3 1.7 2 2.6 5 2.3 6.7 2.9-2.2-2.3-5-3.9-8-4.6z"/><path d="m8.9 43.4c.2-3.1-1.5-4.3-1.7-5.9-.7 2.6-.4 4.9 2 8-.2-.7-.3-1.4-.3-2.1z"/><path d="m5.8 39.3c.1-.8.2-1.5.3-2.2.5-2.2.2-3.5 0-5.6-1.9 2.9-1.7 5.1-.3 7.8z"/><path d="m2.2 34.9c.5.4 1 1.2 1.4 1.7.1-3.1-.9-6.2-2.7-8.7.4 2.2-.7 5 1.3 7z"/><path d="m4.3 32.3c.2-.4.5-.9.8-1.3 1.8-2.1 1.5-3.9 2.1-5.7-1.8 1.8-3.2 3.3-2.9 7z"/><path d="m4 23.3c1.3-2.8 1.9-5.1 1.3-8-.5 1.3-1.9 2.8-1.9 4.8.1.9.7 3.1.6 3.2z"/><path d="m3.2 29.9c.4-3.2 1-4.8-.5-8.4-.4 1.6-1.9 4.2-.5 6.7.3.5.7 1.1 1 1.7z"/><path d="m11.4 14.5c-2.6.7-4.5 2.8-5.2 5.3.1-.1 1.2-.9 1.8-1.2 1.4-1.1 2.6-2.5 3.4-4.1z"/><path d="m6.4 16.9c1.6-2 2.6-4.5 2.8-7.1-.5.6-1 1.2-1.5 1.8-.8 1-1.3 2.2-1.4 3.5-.1.6.1 1.1.1 1.8z"/><path d="m46.4 4.6c-1.4-1.6-3.3-2.9-6.8-2.5 1.3 1.2 2.8 2 4.4 2.4.8.1 1.6.1 2.4.1z"/><path d="m43.9 5.5c1 1 2.3 1.6 3.7 1.8.6.1 1.3.1 1.9 0-1.4-1.5-3.5-2.2-5.6-1.8z"/><path d="m55 10c.5.5 1.5 1.3 1.6 1.4-.4-2.6-2.1-4.9-4.6-5.9.7 1.8 1.7 3.3 3 4.5z"/><path d="m54 10.1c-1.3-1.6-3.3-2.3-5.3-2 .9 1 2.2 1.6 3.5 1.9.6.1 1.2.1 1.8.1z"/><path d="m51.9 11c1.1 1.2 2.4 2.1 3.8 2.7.6.2 1.2.4 1.8.6-1.2-2.2-2.5-3.2-5.6-3.3z"/><path d="m51.6 7.2c-.9-2.4-2-3.5-5-4.5 1.1 2.2 2.2 3.6 5 4.5z"/><path d="m61.2 25.5c.3.4.6.8.8 1.3.3-2.8-1.1-5.6-3.6-6.8.5 1.9 1.5 3.8 2.8 5.5z"/><path d="m60.8 42.1c1.2-1 4.2-2.2 4.6-5.1.1-.7.2-1.3.4-2-2.3 1.9-4 4.4-5 7.1z"/><path d="m56.7 43.5c-.8 1-1.5 2.1-2.2 3.2-.7 1.3-1 2.9-1.4 3.8 1.7-1.4 4.2-3.5 3.6-7z"/><path d="m53.1 47.4c-1.3 1.5-1.6 1.3-3.2 3-.8.9-1.6 3.1-2.4 3.9 3.1-1 5.2-3.7 5.6-6.9z"/><path d="m57.5 47.6c2.2-.8 4.5-2 5.5-4.1.4-.8.8-1.7 1-2-2.7 1.7-5.2 3.7-6.5 6.1z"/><path d="m55.6 53.9c.7-.6 1.4-1.2 1.7-1.4-2.2.5-5.7.5-9.2 3 2.5-.6 5.3.3 7.5-1.6z"/><path d="m52.5 52.3c1.7-.7 4.8-.4 6.7-2.9.5-.7 1.1-1.5 1.3-1.7-2 .6-5.4 1.6-8 4.6z"/><path d="m59.6 37.5c-.2 1.6-1.9 2.8-1.7 5.9 0 .7-.1 1.4-.2 2.1 2.2-3.1 2.6-5.4 1.9-8z"/><path d="m60.6 37.1c.2.7.3 1.5.3 2.3 1.4-2.7 1.6-4.9-.4-7.8-.1 2-.4 3.2.1 5.5z"/><path d="m63.1 36.6c.4-.5 1-1.2 1.4-1.7 2-2 .9-4.8 1.3-7-1.8 2.5-2.8 5.6-2.7 8.7z"/><path d="m59.5 25.3c.6 1.8.3 3.6 2.1 5.7.3.4.6.9.8 1.3.3-3.7-1-5.2-2.9-7z"/><path d="m63.2 20.1c0-2-1.3-3.4-1.9-4.8-.6 2.9 0 5.2 1.3 8 0-.1.6-2.3.6-3.2z"/><path d="m63.5 29.9c.3-.6.6-1.2 1-1.7 1.3-2.5-.2-5.1-.5-6.7-1.4 3.6-.9 5.2-.5 8.4z"/><path d="m58.7 18.6c.6.4 1.6 1.1 1.7 1.2-.6-2.6-2.6-4.6-5.1-5.3.8 1.6 2 3 3.4 4.1z"/><path d="m60.5 15.1c0-1.3-.5-2.5-1.3-3.5-.5-.6-1.2-1.2-1.6-1.8.1 2.6 1.1 5.1 2.8 7.1-.1-.7.1-1.2.1-1.8z"/><path d="m28.8 55.5c-1.8-1.2-3.8-1.2-4.7-1.8 1.2 2 2.9 3.7 5 4.8.4.2.6.8-.1.5-2-.8-6.1-.5-8.6.8 1.7.4 3.8 1.6 6.1 1.8 2 .2 3.6-.7 6-.6 3.1.2 3.6 1.9 10.9 3.7.3.1.6 0 .8-.2s.5-.5.7-.8c-6.2-.4-9.5-2.4-12.1-4.6-1.4-1.3-3-2.9-4-3.6z"/><path d="m24 57.7c-1.6-.7-3.4-1.1-5.1-1.2-2.1-.2-3.7.1-4.9 0 .7.4 2.1 1.1 2.5 1.3 2.9 2 5.5-.4 7.5-.1z"/><path d="m25.5 57.2c-1.2-1-2.1-2.9-2.8-3.6-2-1.8-2.8-1.5-4.4-2.6 1.3 3.1 4 5.4 7.2 6.2z"/><path d="m23.1 25.2-.2.1c-.1 0-.2 0-.4 0-.3-.1-.6-.1-.8 0l-.4.1c-.2.1-.2 0-.2-.1s0-.1.1-.2c.1-.2.1-.4-.1-.6-.2-.1-.4 0-.5.1l-.4.3c-.1.1-.1.2.1.2s.2.2.2.4 0 .3-.1.5 0 .5.3.6h.1 1.1c.5 0 .9-.3 1.1-.8 0-.1.2-.3.2-.4s0-.3-.1-.2z"/><path d="m30.7 25.2-.2.1c-.1 0-.2 0-.3 0-.3-.1-.6-.1-.9 0l-.4.1c-.2.1-.2 0-.2-.1l.1-.2c.1-.2.1-.4 0-.6-.2-.1-.4 0-.5.1l-.4.3c-.1.1-.1.2.1.2s.2.2.2.4-.1.3-.1.5c-.1.2 0 .5.3.6h.2 1.1c.5 0 .9-.3 1.1-.8 0-.1.2-.3.2-.4s-.2-.3-.3-.2z"/><path d="m33.4 14.9c.6 0 1.2-.5 1.2-1.2s-.5-1.2-1.2-1.2-1.2.5-1.2 1.2c0 .7.5 1.2 1.2 1.2z"/><path d="m28.5 15.3c.6-.1 1.1-.7 1-1.3s-.7-1.1-1.3-1-1.1.7-1 1.3c.1.7.7 1.1 1.3 1z"/><path d="m23.1 14.3c-.6.2-1 .8-.8 1.4s.8 1 1.4.8h.1c.6-.2.9-.9.7-1.5-.2-.5-.8-.9-1.4-.7z"/><path d="m18.3 16.3c-.6.3-.8 1-.5 1.5.2.6.8.9 1.4.7s.9-.8.7-1.4c0-.1-.1-.3-.2-.4-.2-.4-.9-.7-1.4-.4z"/><path d="m38.2 15.3c.6.1 1.2-.4 1.3-1s-.4-1.2-1-1.3-1.2.4-1.3 1 .3 1.2 1 1.3z"/><path d="m42.9 16.5c.6.2 1.3-.1 1.5-.7s-.1-1.3-.7-1.5-1.3.1-1.5.7c-.3.6.1 1.3.7 1.5z"/><path d="m47.4 18.3c.6.3 1.3.1 1.6-.5s.1-1.3-.5-1.5c-.6-.3-1.3-.1-1.6.4-.3.6-.1 1.3.4 1.6z"/><path d="m35.8 36.2c.2 0 .2.2.2.4s-.1.3-.1.5c-.1.3 0 .5.3.6h.1 1.1c.5 0 .9-.3 1.1-.8.1-.1.1-.3.2-.4.1-.2-.1-.3-.2-.2-.1 0-.2 0-.2 0-.1 0-.2 0-.3 0-.3-.1-.6-.1-.9 0-.1.1-.2.1-.4.1-.2.1-.2 0-.2-.1l.1-.2c.1-.2.1-.4 0-.6-.2-.1-.4 0-.5.1l-.4.3c-.2.1-.1.3.1.3z"/><path d="m42.9 36.2c.2 0 .2.2.2.4s0 .3-.1.5c-.1.3 0 .5.3.6h.1 1.1c.5 0 .9-.3 1.1-.8.1-.1.1-.3.2-.4.1-.2-.1-.3-.2-.2-.1 0-.1.1-.2.1s-.2 0-.4 0c-.3-.1-.6-.1-.8 0-.1.1-.2.1-.4.1-.2.1-.2 0-.2-.1s0-.1.1-.2c.1-.2.1-.4-.1-.6-.2-.1-.4 0-.5.1l-.4.3s.1.2.2.2z"/><path d="m24.4 32.1c.2 0 .2.2.2.4s-.1.3-.1.5c-.1.3 0 .5.3.6h.1 1.1c.5 0 .9-.3 1.1-.8 0-.1.2-.3.2-.4.1-.2-.1-.3-.2-.2-.1 0-.1.1-.2.1s-.2 0-.4 0c-.3-.1-.6-.1-.8 0l-.4.1c-.2 0-.2 0-.2-.1s0-.1.1-.2c.1-.2.1-.4-.1-.6-.2-.1-.4 0-.5.1s-.3.2-.4.3c0 0 .1.2.2.2z"/><path d="m39 43.1c.2 0 .2.2.2.4s-.1.3-.1.5c-.1.3 0 .5.3.6h.1 1.1c.5 0 .9-.3 1.1-.8 0-.1.2-.3.2-.4s-.1-.3-.2-.2c-.1 0-.1.1-.2.1s-.2 0-.3 0c-.3-.1-.6-.1-.9 0-.1.1-.2.1-.4.1-.2.1-.2 0-.2-.1l.1-.2c.1-.2.1-.4 0-.6-.2-.1-.4 0-.5.1l-.4.3c-.1.1-.1.3.1.2z"/><path d="m25.6 13.4c-1.1-1.2-2.9-1.3-4.1-.2-.5.5-.8 1.1-.9 1.8-.5-.4-1.1-.6-1.8-.6-1.6 0-2.9 1.3-2.8 2.9 0 1.2.8 2.3 2 2.7v2.6h-5.3l5.2 5.5v13.6c0 2.3.9 4 3.8 4.3s6.1.7 7.6.9c2 .2 3 .5 4.2 2.2 1.1-1.6 2.2-2 4.2-2.2 1.5-.2 4.8-.5 7.6-.9s3.8-2 3.8-4.3v-13.5l5.1-5.5h-5.3v-2.6c1.5-.4 2.4-2 2-3.6-.4-1.5-2-2.4-3.6-2-.4.1-.7.3-1 .5-.2-1.6-1.6-2.7-3.2-2.5-.7.1-1.3.4-1.8.9-.4-1.5-2-2.4-3.6-2-.7.2-1.2.6-1.6 1.2-.7-1.4-2.4-2.1-3.8-1.4-.6.3-1.1.8-1.4 1.4-.9-1.3-2.7-1.6-4-.7-.7.3-1.1.9-1.3 1.5zm-6.9 13.9-3.3-3.5h17.7v3.5zm7.1 16.3h-6.4c-.2-.5-.4-1-.4-1.5h6.8zm0-3.8h-6.8v-5h6.8zm7.3 7.3c-.9-.7-2-1.1-3.1-1.2l-3.6-.4v-5.1h6.8zm0-9h-6.7v-1.4h6.8zm0-3.8h-14.1v-3.5h14.1zm0-4.1h-14.1v-2.3h14.1zm.5-6.4h6.8v5h-6.8zm6.8 7.3v1.5h-6.8v-1.4zm4.5 13.8-8.2.9c-1.1.1-2.2.5-3.1 1.2v-5.2h14.1c0 1.8-.6 2.9-2.8 3.1zm2.8-3.6h-14.1v-2.4h14.1zm0-2.9h-14.1v-3.6h14.1zm0-4h-6.7v-5h6.8v5zm2-8.8-1.4 1.4h-7.3v-1.5zm-21.7-13.5c1.2-.2 2.3.6 2.5 1.8v.7l.8-.1c-.1-.2-.1-.4-.1-.7-.1-1.2.8-2.2 2-2.3s2.2.8 2.3 2v.3c0 .2 0 .4-.1.7l.8.1c0-.2 0-.4 0-.7.1-1.2 1.2-2 2.4-1.9s2 1.2 1.9 2.4c0 .3-.1.6-.3.8l.9.2c0-.2 0-.4.1-.6.4-1.1 1.6-1.7 2.7-1.3s1.7 1.6 1.3 2.7c-.1.2-.2.4-.3.5l.8.3c0-.2.1-.4.2-.6.5-1.1 1.8-1.5 2.9-.9 1.1.5 1.5 1.8.9 2.9-.2.4-.5.7-.9.9l-2.7 1.5-.4-2.7c-.5-.2-1-.5-1.6-.7l-2 1.6-.8-2.6c-.5-.2-1.1-.3-1.7-.4l-1.9 2-1.2-2.5c-.6-.1-1.1-.1-1.7-.1l-1.5 2.2-1.6-2.2c-.6 0-1.1.1-1.7.1l-1.2 2.5-1.9-2c-.6.1-1.1.2-1.7.4l-.8 2.6-2.2-1.6c-.5.2-1 .4-1.6.7l-.3 2.7-2.7-1.5c-1-.6-1.4-1.9-.9-2.9.6-1 1.9-1.4 2.9-.9.4.2.7.5.9.9.1.2.2.4.2.6l.8-.3c-.1-.2-.2-.4-.3-.6-.2-1.2.6-2.3 1.8-2.5s2.3.6 2.5 1.8l.8-.2c-.1-.2-.2-.4-.2-.6 0-1.3.7-2.4 1.9-2.5z"/></svg>