<svg enable-background="new 0 0 2500 2500" height="20" viewBox="0 0 2500 2500" width="20" xmlns="http://www.w3.org/2000/svg"><path d="m2434.7 986.8-703.3.1c-17.9 0-29.6-5.3-29.6-30v-104.4c0-30.1-16.2-46-45.6-46h-805.2c-30.1 0-45.6 17-45.6 45.7v104.4c0 22-10.4 30-29.7 30l-460.9.1c-35.3 0-55.9 16.8-66.5 38.9l-224.5 438.6c-2.9 5.6-4.6 12.1-4.6 18.7 0 17.3 11.3 39.8 42.8 39.8l713.6-.1c22 0 29.7 10 29.7 30v104.3c0 31.5 18.2 45.7 45.7 45.7h805.1c27.4 0 45.7-13.3 45.7-45.4l-.1-104.3c0-21.3 9-30 29.6-30l447.6-.1c30.8 0 53-8.1 68.5-36.8l221.9-433.5c4.9-9.4 8.1-14.7 8.1-25.8 0-29.6-25.4-39.9-42.7-39.9zm-177.3 174.7-107 209.3c-6.7 12.2-18.6 12.6-27 12.6h-530.8c-22 0-30 9.9-30 29.9v120.4c0 19.9-8.8 29.6-30.2 29.6h-557.7c-18.7 0-30.1-6.6-30.1-29.9v-120.3c0-22-10.1-29.8-30.1-29.8h-650.9c-16 0-27-10-27-24 0-4.1 1-7.8 2.8-11.3l107-209.2c4.1-7.3 10.8-12.6 26.9-12.6l541.2.1c18.7 0 30.3-7.5 30.3-30.2v-120.4c0-21.3 9.3-29.8 29.9-29.8l557.6-.1c20 0 30 8.9 30 30.2v120.3c0 20.7 9.6 29.8 30.3 29.8h640.5c20.4 0 27.1 13.4 27.1 24.1 0 3.9-1 7.8-2.8 11.3z"/></svg>