<svg height="20" viewBox="0 0 100 100" width="20" xmlns="http://www.w3.org/2000/svg"><path d="m96.9796045 90.256219c.0479698-1.1553979.0918813-2.6187899.0918813-4.0999462 0-3.1663616-2.5960695-6.1675635-2.6189803-6.1934897-13.2664945-14.7020964-35.6829534-36.4503675-44.0198272-37.2051091-.1684892-.0180043-.4322009-.0014403-.4322009-.0014403.0047729 10.0380145.3386488 9.5684615-5.5818605 12.0696231-.609759.2571018-20.4637987 8.6488003-39.4004554 25.8014061-2.30157175 2.6022259-2.0884544 5.2034916-2.0884544 5.2034916 0 1.5745388.04820791 2.6502375.10047302 4.4185028 8.73446958-7.4881211 34.65221058-28.7668394 46.97029728-28.7668394 12.3118813 0 38.248715 21.2921615 46.9791271 28.7738011zm-.3567868-12.2736722c.1367488.153877 3.3771823 3.8565276 3.3771823 8.173726 0 3.3605684-.2231404 6.7425019-.2245726 6.7686681-.0064437.1625191-.0851994 1.5918229-.8770506 1.9795161-.1295888.0624151-.2663376.0948228-.4102452.0948228-.2992708 0-.6324307-.1361127-1.0009118-.4068978-.3396037-.3015125-34.1589144-30.1618149-47.4874584-30.1618149-13.3261579 0-47.14546875 29.8603024-47.50297131 30.1762184-.3570252.2604626-.68517336.3932145-.98038747.3932145-.14390785 0-.282804-.0314475-.41119945-.095543-.79376067-.3876932-.8722776-1.816997-.87919855-1.9725544-.00262521-.0331279-.22600462-3.4150614-.22600462-6.7756298 0-4.3171984 3.24043361-8.019849 3.37837514-8.173726l.0016706-.0016804c1.40733814-1.5608555 34.60543456-38.1910263 46.61971566-38.1910263 12.016429 0 45.2135704 36.6301708 46.6230563 38.1927067zm.3097242-22.5665801c.0477309-1.1537174.0918822-2.6147089.0918822-4.095145 0-3.1627608-2.5936841-6.1615621-2.616594-6.1877283-13.2531307-14.6869727-35.6469178-36.4138788-43.9751995-37.16814023-.1687278-.01776427-.4319623-.00120029-.4319623-.00120029.0045343 10.02817212.3379329 9.55837912-5.5766101 12.05786032-.6088044.2566217-20.4430359 8.6399182-39.3610776 25.77596-2.29918525 2.5991052-2.08606791 5.1986904-2.08606791 5.1986904 0 1.5718981.04820801 2.6471168.10047302 4.4129815 8.72540079-7.4799592 34.61760589-28.7377924 46.92328259-28.7377924 12.2992331 0 38.2100527 21.2715165 46.9318736 28.744514zm-.3560706-12.2614292c.1367487.153877 3.3733638 3.8526866 3.3733638 8.1662842 0 3.3569675-.2224244 6.7357802-.2240955 6.7617065-.0062048.162519-.0847215 1.5899024-.8760956 1.9775956-.1295888.062415-.2663376.0938626-.4102452.0938626-.2985556 0-.6317155-.1344323-.9992407-.4052175-.3396036-.3024727-34.1250262-30.1325279-47.4402058-30.1325279-13.3130319 0-47.09869269 29.8300552-47.45524063 30.1462113-.35678657.2609427-.68445746.3924943-.97967148.3924943-.14390786 0-.28232674-.0316876-.41119954-.0948228-.79280606-.3876932-.870607-1.8150766-.87776658-1.970634-.0023865-.0328879-.22624326-3.4117006-.22624326-6.7686681 0-4.3135976 3.23733113-8.0124072 3.37551129-8.1662842l.0016706-.0016804c1.40566754-1.5584549 34.5705912-38.1528571 46.5729396-38.1528571 12.0047349 0 45.167511 36.5944022 46.576519 38.1545375z" fill-rule="evenodd"/></svg>