<?xml version="1.0" standalone="no"?>
<!DOCTYPE svg PUBLIC "-//W3C//DTD SVG 20010904//EN"
 "http://www.w3.org/TR/2001/REC-SVG-20010904/DTD/svg10.dtd">
<svg version="1.0" xmlns="http://www.w3.org/2000/svg"
 width="1024.000000pt" height="1024.000000pt" viewBox="0 0 1024.000000 1024.000000"
 preserveAspectRatio="xMidYMid meet">

<g transform="translate(0.000000,1024.000000) scale(0.100000,-0.100000)"
fill="#000000" stroke="none">
<path d="M340 5465 l0 -175 633 0 632 -1 90 -84 90 -85 -90 -85 -90 -84 -632
-1 -633 0 0 -175 0 -175 715 0 c601 0 720 2 743 14 15 8 132 120 260 248 173
175 232 240 232 258 0 18 -59 83 -232 258 -128 128 -245 240 -260 248 -23 12
-142 14 -743 14 l-715 0 0 -175z"/>
<path d="M2893 5123 l-511 -518 262 -3 261 -3 257 263 257 262 258 -262 258
-263 262 3 262 3 -504 515 c-342 349 -512 516 -528 518 -20 2 -113 -88 -534
-515z"/>
<path d="M5085 5621 c-16 -10 -132 -122 -257 -248 -170 -171 -228 -235 -228
-253 0 -18 59 -83 233 -258 127 -128 244 -240 259 -248 23 -12 142 -14 743
-14 l715 0 0 175 0 175 -632 0 -633 1 -90 84 -90 85 90 85 90 84 633 1 632 0
0 175 0 175 -717 0 c-686 0 -719 -1 -748 -19z"/>
<path d="M7090 5120 l0 -520 205 0 205 0 0 520 0 520 -205 0 -205 0 0 -520z"/>
<path d="M8325 5123 l-508 -518 262 -3 262 -2 202 207 c111 115 226 233 255
263 l52 55 258 -263 257 -263 264 3 264 3 -508 518 c-370 376 -514 517 -530
517 -16 0 -160 -141 -530 -517z"/>
</g>
</svg>
