<?xml version="1.0" encoding="UTF-8"?>
<svg xmlns="http://www.w3.org/2000/svg" xmlns:xlink="http://www.w3.org/1999/xlink" width="24px" height="20px" viewBox="0 0 23 20" version="1.1">
<g id="surface1">
<path style=" stroke:none;fill-rule:nonzero;fill:rgb(0%,0%,0%);fill-opacity:1;" d="M 0.765625 9.195312 L 0.765625 9.605469 L 3.609375 9.605469 L 3.8125 9.800781 L 4.015625 10 L 3.8125 10.199219 L 3.609375 10.394531 L 2.1875 10.398438 L 0.765625 10.398438 L 0.765625 11.214844 L 2.371094 11.214844 C 3.722656 11.214844 3.992188 11.207031 4.042969 11.179688 C 4.078125 11.164062 4.339844 10.902344 4.628906 10.601562 C 5.015625 10.195312 5.148438 10.042969 5.148438 10 C 5.148438 9.957031 5.015625 9.808594 4.628906 9.398438 C 4.339844 9.101562 4.078125 8.839844 4.042969 8.820312 C 3.992188 8.792969 3.722656 8.789062 2.371094 8.789062 L 0.765625 8.789062 Z M 0.765625 9.195312 "/>
<path style=" stroke:none;fill-rule:nonzero;fill:rgb(0%,0%,0%);fill-opacity:1;" d="M 6.507812 9.992188 L 5.359375 11.203125 L 5.949219 11.207031 L 6.535156 11.214844 L 7.113281 10.601562 L 7.691406 9.992188 L 8.269531 10.601562 L 8.851562 11.214844 L 9.441406 11.207031 L 10.027344 11.203125 L 8.894531 10 C 8.125 9.1875 7.746094 8.796875 7.707031 8.792969 C 7.664062 8.789062 7.453125 8.996094 6.507812 9.992188 Z M 6.507812 9.992188 "/>
<path style=" stroke:none;fill-rule:nonzero;fill:rgb(0%,0%,0%);fill-opacity:1;" d="M 11.4375 8.832031 C 11.402344 8.855469 11.140625 9.117188 10.859375 9.410156 C 10.476562 9.808594 10.347656 9.957031 10.347656 10 C 10.347656 10.042969 10.480469 10.195312 10.871094 10.601562 C 11.15625 10.902344 11.421875 11.164062 11.453125 11.179688 C 11.503906 11.207031 11.773438 11.214844 13.125 11.214844 L 14.734375 11.214844 L 14.734375 10.398438 L 13.3125 10.398438 L 11.886719 10.394531 L 11.683594 10.199219 L 11.484375 10 L 11.683594 9.800781 L 11.886719 9.605469 L 14.734375 9.605469 L 14.734375 8.789062 L 13.121094 8.789062 C 11.578125 8.789062 11.503906 8.789062 11.4375 8.832031 Z M 11.4375 8.832031 "/>
<path style=" stroke:none;fill-rule:nonzero;fill:rgb(0%,0%,0%);fill-opacity:1;" d="M 15.949219 10 L 15.949219 11.214844 L 16.871094 11.214844 L 16.871094 8.789062 L 15.949219 8.789062 Z M 15.949219 10 "/>
<path style=" stroke:none;fill-rule:nonzero;fill:rgb(0%,0%,0%);fill-opacity:1;" d="M 18.726562 9.992188 L 17.582031 11.203125 L 18.171875 11.207031 L 18.761719 11.214844 L 19.214844 10.730469 C 19.464844 10.460938 19.726562 10.1875 19.789062 10.117188 L 19.90625 9.988281 L 20.488281 10.601562 L 21.066406 11.214844 L 21.660156 11.207031 L 22.253906 11.203125 L 21.109375 9.992188 C 20.277344 9.117188 19.953125 8.789062 19.917969 8.789062 C 19.882812 8.789062 19.558594 9.117188 18.726562 9.992188 Z M 18.726562 9.992188 "/>
</g>
</svg>
