<svg xmlns="http://www.w3.org/2000/svg" xmlns:xlink="http://www.w3.org/1999/xlink" version="1.1" width="940" height="788" viewBox="0 0 940 788" xml:space="preserve">
<desc>Created with Fabric.js 3.5.0</desc>
<defs>
</defs>
<rect x="0" y="0" width="100%" height="100%" fill="rgba(255,255,255,0)"/>
<g transform="matrix(0.6895 0 0 0.6895 470.6987 394.0291)" id="69997">
<g style="" vector-effect="non-scaling-stroke">
		<g transform="matrix(0.1333 0 0 -0.1333 -507.3658 -0.0174)">
<path style="stroke: none; stroke-width: 1; stroke-dasharray: none; stroke-linecap: butt; stroke-dashoffset: 0; stroke-linejoin: miter; stroke-miterlimit: 4; is-custom-font: none; font-file-url: none; fill: rgb(0,0,0); fill-rule: nonzero; opacity: 1;" transform=" translate(-1315, -5120)" d="M 340 5465 l 0 -175 l 633 0 l 632 -1 l 90 -84 l 90 -85 l -90 -85 l -90 -84 l -632 -1 l -633 0 l 0 -175 l 0 -175 l 715 0 c 601 0 720 2 743 14 c 15 8 132 120 260 248 c 173 175 232 240 232 258 c 0 18 -59 83 -232 258 c -128 128 -245 240 -260 248 c -23 12 -142 14 -743 14 l -715 0 l 0 -175 z" stroke-linecap="round"/>
</g>
		<g transform="matrix(0.1333 0 0 -0.1333 -226.6346 0.1806)">
<path style="stroke: none; stroke-width: 1; stroke-dasharray: none; stroke-linecap: butt; stroke-dashoffset: 0; stroke-linejoin: miter; stroke-miterlimit: 4; is-custom-font: none; font-file-url: none; fill: rgb(0,0,0); fill-rule: nonzero; opacity: 1;" transform=" translate(-3420.5, -5118.5162)" d="M 2893 5123 l -511 -518 l 262 -3 l 261 -3 l 257 263 l 257 262 l 258 -262 l 258 -263 l 262 3 l 262 3 l -504 515 c -342 349 -512 516 -528 518 c -20 2 -113 -88 -534 -515 z" stroke-linecap="round"/>
</g>
		<g transform="matrix(0.1333 0 0 -0.1333 60.6342 -0.0174)">
<path style="stroke: none; stroke-width: 1; stroke-dasharray: none; stroke-linecap: butt; stroke-dashoffset: 0; stroke-linejoin: miter; stroke-miterlimit: 4; is-custom-font: none; font-file-url: none; fill: rgb(0,0,0); fill-rule: nonzero; opacity: 1;" transform=" translate(-5575, -5120)" d="M 5085 5621 c -16 -10 -132 -122 -257 -248 c -170 -171 -228 -235 -228 -253 c 0 -18 59 -83 233 -258 c 127 -128 244 -240 259 -248 c 23 -12 142 -14 743 -14 l 715 0 l 0 175 l 0 175 l -632 0 l -633 1 l -90 84 l -90 85 l 90 85 l 90 84 l 633 1 l 632 0 l 0 175 l 0 175 l -717 0 c -686 0 -719 -1 -748 -19 z" stroke-linecap="round"/>
</g>
		<g transform="matrix(0.1333 0 0 -0.1333 289.9932 -0.0174)">
<path style="stroke: none; stroke-width: 1; stroke-dasharray: none; stroke-linecap: butt; stroke-dashoffset: 0; stroke-linejoin: miter; stroke-miterlimit: 4; is-custom-font: none; font-file-url: none; fill: rgb(0,0,0); fill-rule: nonzero; opacity: 1;" transform=" translate(-7295, -5120)" d="M 7090 5120 l 0 -520 l 205 0 l 205 0 l 0 520 l 0 520 l -205 0 l -205 0 l 0 -520 z" stroke-linecap="round"/>
</g>
		<g transform="matrix(0.1333 0 0 -0.1333 497.9654 0.0493)">
<path style="stroke: none; stroke-width: 1; stroke-dasharray: none; stroke-linecap: butt; stroke-dashoffset: 0; stroke-linejoin: miter; stroke-miterlimit: 4; is-custom-font: none; font-file-url: none; fill: rgb(0,0,0); fill-rule: nonzero; opacity: 1;" transform=" translate(-8855, -5119.5)" d="M 8325 5123 l -508 -518 l 262 -3 l 262 -2 l 202 207 c 111 115 226 233 255 263 l 52 55 l 258 -263 l 257 -263 l 264 3 l 264 3 l -508 518 c -370 376 -514 517 -530 517 c -16 0 -160 -141 -530 -517 z" stroke-linecap="round"/>
</g>
</g>
</g>
</svg>