<svg enable-background="new 0 0 2500 2500" height="20" viewBox="0 0 2500 2500" width="20" xmlns="http://www.w3.org/2000/svg"><path d="m0 1124.9c0-83 51.6-139 149.2-139h633.4v117.7h-614.4c-17.2 0-32.5 8.8-32.5 34.8v196.2c0 23.8 10 39.2 41.4 39.2h432.7c22.8 0 40.4-8.1 40.4-38.1v-45.9h-253.3v-112.1h385.7v180.3c0 86.3-62.8 133.5-161.4 133.5h-471c-95.3 0-150.2-51.6-150.2-138zm1347.6 366.6 216.4-383.5v383.5h135.6v-505.6h-208.6l-206.3 363.1-206.3-363.2h-208.5v505.6h135.6v-383.4l216.4 383.5zm1152.4 0h-567.2c-95.5 0-150.2-51.6-150.2-137.9v-228.7c0-83 51.4-139 149-139h568.4v127.1h-549.3c-17.2 0-32.6 8.7-32.6 34.7v177.5c0 23.9 10.1 39.2 41.5 39.2h540.4z"/></svg>