<svg enable-background="new 0 0 2500 2500" height="20" viewBox="0 0 2500 2500" width="20" xmlns="http://www.w3.org/2000/svg"><path d="m2225.5 857.7c-298.8-150.8-635.7-216.5-969.3-216.5-336.4 0-687.1 52.5-984.8 216.5-124.8 69.1-263.4 190-263.4 344.1 0 152.4 136.4 278.9 262.4 342.4 299.3 151.3 636.8 216.5 970.9 216.5 336.3 0 687.1-52.5 984.7-215.9 123.7-67.9 262.9-188.3 262.9-341.9 0-154.1-135.3-281.1-263.4-345.2zm-1416.7 634.6-203.3-244.7h-6.1v244.7h-158v-545.6h-34.8v-36.5h192.8v204.9h6.1l166.8-204.9h177.8l-220.9 271.7 256.3 310.4zm505.9 0h-157.9v-543.4h-34.2v-40.3h192.2v583.7zm610.9 0-129.8-380.5-130.3 380.5h-172.3l189.4-545.7h-30.9v-35.9h243.6l198.3 581.6z"/></svg>