<svg enable-background="new 0 0 150.2 150.2" height="20" viewBox="0 0 150.2 150.2" width="20" xmlns="http://www.w3.org/2000/svg"><path d="m62.2 125.1h25.9v6.4h-25.9z"/><path d="m65.3 134.1h19.5v13.3h-19.5z"/><path d="m36.7 95.5h76.7v3.1h-76.7z"/><path d="m32.6 101.6h84.9v3.1h-84.9z"/><path d="m32.6 89.7h84.9v3.1h-84.9z"/><path d="m88.6 111.7c-4.3 3.9-4.3 10.9-4.3 10.9h-9.3-9.1s0-7-4.3-10.9c-3-2.7-6.7-3.3-6.7-3.3-2.4-.4-2.4-.8-2.4-1h20.7 5.8 18.3s0 .4-2.4 1c.2 0-3.5.6-6.3 3.3z"/><path d="m37.1 107.7h9.1c0 5.5-3.6 8-9.1 6.7 0-3.7 0-5.1 0-6.7z"/><path d="m69.8 19.5c3.7-7.2 4.3-18.2 5.2-18.3 1 .2 1.5 11.2 5.2 18.3 3.6 6.8 10.9 12.7 10.6 13.3-.6.8-4.6-1.3-6.7-2.4-3.3-1.5-6.1-2.7-6.1-2.7s-1.3 17.3 3 33.4c3.6 13.1 11.6 25.2 12.5 26.1h-10.5c-.4-.6-.6-1.2-1-1.5-3-5.1-4.9-9.5-6.8-17-1.9 7.6-4 11.9-7 17-.4.6-.6 1.2-1 1.5h-10.5c.8-1 8.9-13.1 12.5-26.1 4.3-16 3-33.4 3-33.4s-2.7 1.2-6.1 2.7c-2.1 1-6.3 3.1-6.8 2.4-.4-.6 7.1-6.4 10.5-13.3z"/><path d="m36.7 87.3c0-1.3-.8-18.9-4.9-32.8-4.5-15.2-13.7-24.1-13.1-25.2.6-.8 8 .8 13.7 4.5 6.1 4 11.9 10.9 11.5 11.5-.2.4-2.4-1.3-6.1-2.7-3.9-1.3-5.7-1.2-5.7-1.2s6.4 10.7 9.7 22.2c2.7 9.7 4 22.2 4 23.4h-9.4v.2z"/><path d="m113.5 87.3c0-1.3.8-18.9 4.9-32.8 4.5-15.2 13.7-24.1 13.1-25.2-.6-.8-8 .8-13.7 4.5-6.1 4-11.9 10.9-11.5 11.5.2.4 2.4-1.3 6.1-2.7 3.9-1.3 5.7-1.2 5.7-1.2s-6.4 10.7-9.7 22.2c-2.7 9.7-4 22.2-4 23.4h9.4v.2z"/><path d="m113 107.7c-1 0-8 0-9.1 0 0 5.5 3.6 8 9.1 6.7 0-3.7 0-5.1 0-6.7z"/></svg>