<svg enable-background="new 0 0 989.6 989.6" height="20" viewBox="0 0 989.6 989.6" width="20" xmlns="http://www.w3.org/2000/svg"><g transform="matrix(.1 0 0 -.1 0 511)"><path d="m4827.8 3814.1c-703.8-240-1490.3-804.7-2420-1736.4-447.7-447.7-943.8-1026.5-1316.9-1538.7-342.9-465.9-758.3-1256.4-919.7-1746.5-147.2-437.6-163.4-744.1-52.4-947.8 72.6-131.1 123-173.4 369.1-310.6 742.1-415.4 1942.1-792.6 2988.7-939.8 550.6-76.6 784.5-92.8 1472.2-92.8s921.6 16.1 1472.2 92.8c974.1 137.1 2014.7 449.7 2803.2 843 334.8 167.4 455.8 248.1 524.3 359 86.7 137.1 106.9 229.9 94.8 449.7-18.2 320.6-151.3 726-417.5 1252.4-191.6 385.2-609.1 1066.8-713.9 1173.7-18.1 18.2-30.2 40.3-28.2 50.4 8.1 22.2-344.9 473.9-607 778.4-244 284.4-828.8 869.2-1131.4 1133.4-637.3 556.6-1228.2 953.9-1669.8 1121.3-163.4 60.5-363 86.7-447.7 58.5zm435.6-383.2c363-179.5 1437.9-964 1863.4-1359.2 780.5-724 1502.4-1724.3 2067.1-2867.7 457.8-927.7 496.1-1175.7 207.7-1365.3-395.3-262.2-1226.1-570.7-2163.9-802.6-818.8-203.7-1361.3-270.2-2228.4-270.2-647.4-2-889.4 14.1-1439.9 98.8-1083 167.4-2565.2 655.4-3029.1 998.3-246 179.5-201.7 435.6 233.9 1320.9 407.4 826.8 919.6 1617.4 1454 2238.5 209.7 248.1 740.1 772.4 955.9 949.9 550.6 451.7 1331 980.1 1639.6 1111.2 149.3 62.4 227.9 52.3 439.7-52.6z"/><path d="m3412.1 1404.1-6-1056.7-193.6 106.9c-104.9 60.5-405.4 240-665.5 399.3-300.5 185.5-477.9 282.3-486 268.2-8.1-12.1-16.1-871.2-16.1-1909.8v-1887.6l167.4-62.5c90.8-34.3 179.5-64.5 195.6-68.6 26.2-6 32.3 185.5 40.3 1591.2l10.1 1597.2 427.5-238c235.9-131.1 449.7-254.1 477.9-272.3l52.4-32.3v-1439.9-1437.9l117-22.2c62.5-12.1 157.3-28.2 209.7-36.3l96.8-12.1 4 1341.1 6 1341.1 560.6-340.8 558.6-338.8 560.6 340.8 558.6 338.8 6-1339.1c4-1087 10.1-1339.1 30.2-1339.1 14.1 0 80.7 10.1 147.2 20.2 64.5 12.1 149.2 26.2 185.5 32.3l64.5 10.1v1437.9c0 1127.3 6 1444 26.2 1460.1 12.1 10.1 227.9 135.1 478 274.3l453.8 252.1 10.1-1597.2c8.1-1405.6 14.1-1597.2 40.3-1591.2 16.1 4 104.9 34.3 197.6 68.6l165.4 62.5v1887.6c0 1038.6-8.1 1897.7-16.1 1909.8-8.1 14.1-185.5-82.7-486-268.2-260.1-159.3-560.6-338.8-665.5-399.3l-193.6-106.9-6 1056.7c-4 891.4-8.1 1056.7-32.3 1056.7-16.1 0-365-195.6-776.4-433.6l-748.2-435.6-748.2 435.6c-411.4 238-760.3 433.6-776.4 433.6-24 .1-28-161.3-32-1056.7zm998.2 30.3c298.5-167.4 550.6-304.5 560.6-304.5 8.1 0 264.2 139.1 566.7 310.6l550.6 310.6 6-828.9c4-647.4-2-834.9-20.2-853.1-14.1-12.1-268.2-169.4-564.7-348.9l-540.4-328.7-558.6 342.8-560.6 340.8-6 840.9c-2 463.8 2 836.9 10.1 832.9 10-6 260.1-147.1 556.5-314.5z"/></g></svg>