<svg enable-background="new 0 0 80 80" height="20" viewBox="0 0 80 80" width="20" xmlns="http://www.w3.org/2000/svg"><path d="m58.6 4.5c-5.6-2.9-11.9-4.5-18.6-4.5s-13 1.6-18.6 4.5c-12.7 6.7-21.4 20.1-21.4 35.5s8.7 28.8 21.5 35.5c5.5 2.8 11.8 4.5 18.5 4.5s12.9-1.7 18.5-4.6c12.8-6.6 21.5-20 21.5-35.4s-8.7-28.8-21.4-35.5zm-54.6 35.5c0-13.1 7-24.5 17.5-30.9 5.1-3.1 11-4.9 17.5-5.1l-4.5 32.7-13 10.1-13.2 10.3c-2.7-5.1-4.3-10.9-4.3-17.1zm54.6 30.8c-5.5 3.3-11.8 5.2-18.6 5.2s-13.2-1.9-18.6-5.2c-4.9-2.9-8.9-6.9-11.9-11.7l11.9-4.9 18.6-7.6 18.6 7.5 12 4.9c-3 4.9-7.2 8.9-12 11.8zm0-24-12.9-10-4.6-32.8c6.3.2 12.3 2 17.4 5.1 10.5 6.3 17.5 17.8 17.5 30.9 0 6.2-1.5 12-4.3 17.1z"/></svg>