<svg enable-background="new 0 0 612 612" height="20" viewBox="0 0 612 612" width="20" xmlns="http://www.w3.org/2000/svg"><path d="m492.3 207.7c-35.2-67.4-105.8-113.5-187.2-113.5s-152 46.1-187.2 113.5z"/><path d="m117.7 402.6c35.2 67.6 105.9 113.8 187.4 113.8s152.2-46.2 187.4-113.8z"/><path d="m429.3 282.2c-.6-1.6-1.1-2.8-1.2-2.8s-.6 1.3-1.2 2.8l-9.8 26.2c-.6 1.6.3 2.8 2 2.8h18c1.7 0 2.6-1.3 2-2.8z"/><path d="m592 225.9h-570.8c-10 0-18.2 8.2-18.2 18.2v34.3 55.8 34.3c0 10 8.2 18.2 18.2 18.2h570.8c10 0 18.2-8.2 18.2-18.2v-35.5-53.5-35.4c0-10-8.2-18.2-18.2-18.2zm-456.9 122.2c0 1.7-1.4 3-3 3h-33.6c-1.7 0-3.6-1.2-4.3-2.8l-29.3-63.1c-.7-1.5-1.3-2.7-1.3-2.6s-.1 1.5-.1 3.2l-.4 62.3c0 1.7-1.4 3-3.1 3h-16.1c-1.7 0-3-1.4-3-3v-85.3c0-1.7 1.4-3 3-3h36c1.7 0 3.6 1.3 4.2 2.8l26.3 62.9c.6 1.5 1.2 1.4 1.2-.2v-62.4c0-1.7 1.4-3 3-3h17.4c1.7 0 3 1.4 3 3v85.2zm43.9 0c0 1.7-1.4 3-3 3h-17.4c-1.7 0-3-1.4-3-3v-85.3c0-1.7 1.4-3 3-3h17.4c1.7 0 3 1.4 3 3zm102.5-26.5c0 12.2-9 26-20.6 28.3h-30-31.5v-20.1l49.7-.7c6.2-.1 6.6-3.7 6.5-6.2 0 0 1.2-7.9-7.3-7.9h-27.6c-16.6 0-25.5-10.4-25.5-28.2 0-25 14.3-27.9 37.3-27.9s40.5-.3 40.5-.3l-.3 20.7c-16.6 0-31 .1-40.2.1-12.7 0-12.6.4-12.6 7.9 0 6.7 1 6.7 11.4 6.7l29.7.3c21.2.1 20.5 27.3 20.5 27.3zm94.5 0c0 12.2-9 26-20.6 28.3h-30-31.4v-20.1l49.7-.7c6.2-.1 6.6-3.7 6.5-6.2 0 0 1.2-7.9-7.3-7.9h-27.6c-16.6 0-25.5-10.4-25.5-28.2 0-25 14.3-27.9 37.3-27.9s40.5-.3 40.5-.3l-.3 20.7c-16.6 0-31 .1-40.2.1-12.7 0-12.6.4-12.6 7.9 0 6.7 1 6.7 11.4 6.7l29.7.3c21.1.1 20.4 27.3 20.4 27.3zm100.3 27.4h-17.8c-1.7 0-3.6-1.2-4.4-2.7l-5-10.3c-.7-1.5-2.7-2.7-4.4-2.7h-33c-1.7 0-3.7 1.2-4.4 2.7l-5.3 10.3c-.8 1.5-2.7 2.7-4.4 2.7h-18.3c-1.7 0-2.6-1.3-2-2.8l31.6-85.7c.6-1.6 2.4-2.8 4.1-2.8h29.6c1.7 0 3.5 1.3 4.1 2.8l31.7 85.7c.5 1.5-.4 2.8-2.1 2.8zm106.4-.9c0 1.7-1.4 3-3 3h-33.6c-1.7 0-3.6-1.2-4.3-2.8l-29.3-63.1c-.7-1.5-1.3-2.7-1.3-2.6s-.1 1.5-.1 3.2l-.4 62.3c0 1.7-1.4 3-3.1 3h-16.2c-1.7 0-3-1.4-3-3v-85.3c0-1.7 1.4-3 3-3h36c1.7 0 3.6 1.3 4.2 2.8l26.3 62.9c.6 1.5 1.2 1.4 1.2-.2v-62.4c0-1.7 1.4-3 3-3h17.5c1.7 0 3 1.4 3 3v85.2z"/></svg>