<?xml version="1.0" encoding="UTF-8"?>
<svg xmlns="http://www.w3.org/2000/svg" xmlns:xlink="http://www.w3.org/1999/xlink" width="21px" height="20px" viewBox="0 0 20 20" version="1.1">
<g id="surface1">
<path style=" stroke:none;fill-rule:nonzero;fill:rgb(0%,0%,0%);fill-opacity:1;" d="M 11.359375 10.796875 C 11.339844 10.800781 11.269531 10.800781 11.234375 10.800781 L 8.894531 10.800781 L 8.894531 11.367188 L 11.277344 11.367188 C 11.292969 11.367188 11.433594 11.367188 11.460938 11.363281 C 11.949219 11.316406 12.171875 10.894531 12.171875 10.523438 C 12.171875 10.144531 11.9375 9.738281 11.5 9.695312 C 11.414062 9.6875 11.339844 9.6875 11.308594 9.6875 L 9.753906 9.6875 C 9.683594 9.6875 9.609375 9.679688 9.582031 9.671875 C 9.457031 9.636719 9.414062 9.523438 9.414062 9.429688 C 9.414062 9.34375 9.457031 9.230469 9.585938 9.191406 C 9.621094 9.183594 9.664062 9.179688 9.75 9.179688 L 11.992188 9.179688 L 11.992188 8.621094 L 9.710938 8.621094 C 9.617188 8.621094 9.542969 8.625 9.484375 8.632812 C 9.09375 8.691406 8.824219 9.015625 8.824219 9.433594 C 8.824219 9.777344 9.027344 10.175781 9.476562 10.242188 C 9.558594 10.25 9.671875 10.25 9.722656 10.25 L 11.234375 10.25 C 11.261719 10.25 11.332031 10.25 11.34375 10.253906 C 11.515625 10.277344 11.574219 10.410156 11.574219 10.53125 C 11.574219 10.644531 11.507812 10.765625 11.359375 10.796875 Z M 11.359375 10.796875 "/>
<path style=" stroke:none;fill-rule:nonzero;fill:rgb(0%,0%,0%);fill-opacity:1;" d="M 7.613281 10.796875 C 7.597656 10.800781 7.523438 10.800781 7.496094 10.800781 L 5.152344 10.800781 L 5.152344 11.367188 L 7.53125 11.367188 C 7.550781 11.367188 7.691406 11.367188 7.71875 11.363281 C 8.203125 11.316406 8.425781 10.894531 8.425781 10.523438 C 8.425781 10.144531 8.195312 9.738281 7.753906 9.695312 C 7.667969 9.6875 7.597656 9.6875 7.5625 9.6875 L 6.007812 9.6875 C 5.941406 9.6875 5.863281 9.679688 5.835938 9.671875 C 5.714844 9.636719 5.667969 9.523438 5.667969 9.429688 C 5.667969 9.34375 5.714844 9.230469 5.839844 9.191406 C 5.878906 9.183594 5.917969 9.179688 6.003906 9.179688 L 8.25 9.179688 L 8.25 8.621094 L 5.96875 8.621094 C 5.871094 8.621094 5.800781 8.625 5.742188 8.632812 C 5.351562 8.691406 5.078125 9.015625 5.078125 9.433594 C 5.078125 9.777344 5.28125 10.175781 5.730469 10.242188 C 5.8125 10.25 5.925781 10.25 5.976562 10.25 L 7.492188 10.25 C 7.519531 10.25 7.585938 10.25 7.601562 10.253906 C 7.773438 10.277344 7.832031 10.410156 7.832031 10.53125 C 7.832031 10.644531 7.769531 10.765625 7.613281 10.796875 Z M 7.613281 10.796875 "/>
<path style=" stroke:none;fill-rule:nonzero;fill:rgb(0%,0%,0%);fill-opacity:1;" d="M 4.03125 8.601562 L 4.621094 8.601562 L 4.621094 11.382812 L 4.03125 11.382812 Z M 4.03125 8.601562 "/>
<path style=" stroke:none;fill-rule:nonzero;fill:rgb(0%,0%,0%);fill-opacity:1;" d="M 3.59375 11.382812 L 3.59375 8.601562 L 3.003906 8.601562 L 2.960938 10.675781 L 1.042969 8.601562 L 0.285156 8.601562 L 0.285156 11.382812 L 0.875 11.382812 L 0.828125 9.296875 L 2.851562 11.382812 Z M 3.59375 11.382812 "/>
<path style=" stroke:none;fill-rule:nonzero;fill:rgb(0%,0%,0%);fill-opacity:1;" d="M 19.101562 8.601562 L 19.101562 10.675781 L 17.136719 8.601562 L 16.378906 8.601562 L 16.378906 11.382812 L 16.96875 11.382812 L 16.96875 9.296875 L 18.941406 11.382812 L 19.6875 11.382812 L 19.6875 8.601562 Z M 19.101562 8.601562 "/>
<path style=" stroke:none;fill-rule:nonzero;fill:rgb(0%,0%,0%);fill-opacity:1;" d="M 13.828125 8.601562 L 12.167969 11.382812 L 12.886719 11.382812 L 13.179688 10.886719 L 15.117188 10.886719 L 15.410156 11.382812 L 16.125 11.382812 L 14.464844 8.601562 Z M 14.8125 10.359375 L 13.484375 10.359375 L 14.148438 9.242188 Z M 14.8125 10.359375 "/>
<path style=" stroke:none;fill-rule:nonzero;fill:rgb(0%,0%,0%);fill-opacity:1;" d="M 1.664062 7.023438 C 2.851562 3.394531 6.125 0.957031 9.816406 0.957031 C 13.507812 0.957031 16.789062 3.394531 17.972656 7.023438 L 17.980469 7.050781 L 19.945312 7.097656 L 19.945312 6.773438 L 19.5 6.589844 C 18.832031 6.507812 18.691406 6.203125 18.511719 5.8125 L 18.464844 5.71875 C 16.90625 2.246094 13.507812 0 9.816406 0 C 6.121094 0 2.730469 2.246094 1.167969 5.726562 L 1.125 5.820312 C 0.941406 6.210938 0.800781 6.519531 0.132812 6.597656 L 0.015625 6.738281 L 0.015625 7.066406 L 1.648438 7.058594 Z M 1.664062 7.023438 "/>
<path style=" stroke:none;fill-rule:nonzero;fill:rgb(0%,0%,0%);fill-opacity:1;" d="M 17.980469 12.9375 L 17.972656 12.96875 C 16.785156 16.59375 13.507812 19.027344 9.816406 19.027344 C 6.125 19.027344 2.847656 16.589844 1.664062 12.960938 L 1.652344 12.933594 L 0 12.957031 L 0 13.285156 L 0.140625 13.394531 C 0.804688 13.472656 0.945312 13.78125 1.128906 14.171875 L 1.171875 14.265625 C 2.734375 17.746094 6.128906 19.992188 9.820312 19.992188 C 13.511719 19.992188 16.910156 17.746094 18.46875 14.269531 L 18.515625 14.175781 C 18.695312 13.785156 18.835938 13.480469 19.503906 13.398438 L 19.992188 13.25 L 19.992188 12.921875 Z M 17.980469 12.9375 "/>
</g>
</svg>
