<?xml version="1.0" encoding="UTF-8"?>
<svg xmlns="http://www.w3.org/2000/svg" xmlns:xlink="http://www.w3.org/1999/xlink" width="20px" height="20px" viewBox="0 0 20 20" version="1.1">
<g id="surface1">
<path style=" stroke:none;fill-rule:nonzero;fill:rgb(0%,0%,0%);fill-opacity:1;" d="M 7.921875 0.292969 C 7.851562 0.296875 7.789062 0.320312 7.765625 0.34375 C 7.722656 0.394531 7.863281 0.136719 4.917969 5.640625 C 3.640625 8.023438 2.601562 9.988281 2.601562 10.011719 C 2.601562 10.035156 3.464844 11.671875 4.519531 13.644531 C 5.578125 15.621094 6.738281 17.792969 7.101562 18.472656 C 7.609375 19.417969 7.773438 19.710938 7.820312 19.726562 C 7.914062 19.761719 9.175781 19.753906 9.246094 19.71875 C 9.289062 19.699219 9.457031 19.398438 9.800781 18.761719 C 10.070312 18.253906 11.164062 16.210938 12.226562 14.226562 C 14.710938 9.578125 14.46875 10.046875 14.433594 9.949219 C 14.390625 9.847656 11.140625 3.773438 11.125 3.773438 C 11.117188 3.773438 10.953125 4.066406 10.765625 4.421875 C 10.511719 4.890625 10.417969 5.085938 10.417969 5.148438 C 10.417969 5.21875 10.691406 5.753906 11.683594 7.601562 C 12.625 9.351562 12.949219 9.980469 12.941406 10.027344 C 12.933594 10.09375 8.550781 18.300781 8.523438 18.300781 C 8.503906 18.296875 4.167969 10.191406 4.128906 10.078125 L 4.09375 9.984375 L 4.414062 9.386719 C 5.59375 7.183594 9.273438 0.296875 9.273438 0.285156 C 9.273438 0.273438 8.09375 0.28125 7.921875 0.292969 Z M 7.921875 0.292969 "/>
<path style=" stroke:none;fill-rule:nonzero;fill:rgb(0%,0%,0%);fill-opacity:1;" d="M 10.777344 0.308594 C 10.738281 0.328125 10.441406 0.859375 9.757812 2.136719 C 9.230469 3.128906 8.082031 5.273438 7.210938 6.90625 C 6.335938 8.535156 5.609375 9.90625 5.59375 9.949219 C 5.566406 10.015625 5.574219 10.042969 5.628906 10.160156 C 5.667969 10.234375 6.371094 11.546875 7.191406 13.078125 C 8.011719 14.609375 8.726562 15.949219 8.785156 16.054688 C 8.839844 16.164062 8.890625 16.25 8.898438 16.25 C 8.90625 16.25 9.070312 15.960938 9.261719 15.605469 C 9.515625 15.132812 9.609375 14.941406 9.609375 14.875 C 9.609375 14.808594 9.332031 14.273438 8.339844 12.425781 C 7.398438 10.671875 7.074219 10.046875 7.082031 9.996094 C 7.089844 9.933594 11.476562 1.726562 11.5 1.726562 C 11.519531 1.726562 15.859375 9.835938 15.898438 9.945312 L 15.933594 10.039062 L 14.640625 12.453125 C 13.933594 13.777344 12.769531 15.953125 12.054688 17.289062 C 11.34375 18.621094 10.765625 19.722656 10.777344 19.734375 C 10.789062 19.746094 11.113281 19.753906 11.496094 19.746094 C 12.15625 19.738281 12.203125 19.734375 12.246094 19.6875 C 12.273438 19.660156 12.40625 19.429688 12.546875 19.175781 C 15.183594 14.253906 17.425781 10.046875 17.425781 10.011719 C 17.425781 9.988281 16.558594 8.355469 15.503906 6.378906 C 14.449219 4.40625 13.285156 2.234375 12.921875 1.550781 C 12.417969 0.609375 12.25 0.316406 12.203125 0.296875 C 12.113281 0.261719 10.851562 0.269531 10.777344 0.308594 Z M 10.777344 0.308594 "/>
</g>
</svg>
