<svg height="20" viewBox="0 0 100 100" width="20" xmlns="http://www.w3.org/2000/svg"><path d="m63.6563103 52.9267231c-5.3164823 11.4288924-19.6861506 37.9470115-22.6673688 43.0226191-.1909777.3201213-.3468492.5756567-.464806.7623942-.4423381.6753436-.8242935 1.067071-1.1472705 1.0516266 0 0 5.3122696-9.7243868 9.4632263-20.1311375-4.6677199-8.6039622-8.6824645-16.5648737-12.5371248-24.7532398-.69089-1.4573944-1.0208882-2.1804754-1.0166755-2.8993443v-.001404c0-.0014041 0-.0028081 0-.0028081.0014043-.7118487.345445-1.4307176 1.0265052-2.8965362 5.5790767-11.9975289 19.2395998-37.72938522 23.1967702-43.85521536.4605933-.71325274.7063367-.98002049 1.036335-.98002049h.0308934s-5.5158855 10.32110415-9.4519923 20.13254145c4.6677199 8.6011541 8.6979112 16.5817222 12.5553801 24.7686843.6824644 1.4545863 1.0166754 2.1537986 1.0166754 2.8656473 0 .7132527-.3580832 1.4475661-1.0405477 2.9161928zm25.6415658-5.6189714c-1.4519923-3.0299201-5.9722661-11.9245188-9.8030543-18.8689047-5.2518869-9.5193968-14.6294541-25.19130056-15.6938739-26.62061413-1.0517817-1.41106103-1.6415658-1.47424287-2.6147095-1.57533381l-.1432333-.01684849c-1.4182903-.15444449-7.4270669-.22605057-11.0430051-.22605057-3.0963665 0-9.6752677.08003033-11.2073021.23307078-1.4435668.14321216-1.8339477.58548502-2.6568369 1.6609803-1.1318238 1.47564691-10.6652624 17.59263162-15.6306828 26.54479592-3.592066 6.4726282-9.2778656 17.6642377-9.807267 18.8689047-.47604 1.0867276-.6979112 1.9431925-.6979112 2.6915463 0 .7988992.2218712 1.652556.7007197 2.6901422 1.1922064 2.5848392 4.7870809 9.7440434 9.8044585 18.8689047 5.2336317 9.5193968 14.6898367 25.2516743 15.6924697 26.6206141 1.0602071 1.4475661 1.7525013 1.5065359 2.7101983 1.5935864 1.4548008.1291717 7.7331929.2274546 11.0921538.2274546 3.6271722 0 10.1878181-.1446162 11.0921538-.2274546.8959101-.0814344 1.6696507-.1516364 2.7087941-1.5935864.9534843-1.3212024 11.1244514-18.2707833 15.6938739-26.6206141 4.3798491-8.0002246 9.2427594-17.6122881 9.8030543-18.8689047.617869-1.3787681.7021239-2.1074653.7021239-2.6915463 0-.4577173-.0912761-1.4180812-.7021239-2.6901422z" fill="#010000" fill-rule="evenodd"/></svg>