<svg height="20" viewBox="0 0 100 100" width="20" xmlns="http://www.w3.org/2000/svg"><path d="m44.5574163.26363636c-10.4976077 1.35598086-19.7239235 5.43444976-27.0631579 11.96315794-.6172249.5483253-1.3148326 1.1607655-1.5502393 1.360287-.2358851.2-1.1866028 1.1827752-2.1129186 2.1842106-22.66315792 24.5095693-15.62009572 63.6660287 14.1296651 78.5497607 33.4382775 16.7296654 72.6808614-8.0023923 72.0095693-45.3827751-.0727272-4.0373206-.15311-4.9392344-.7488038-8.3732057-4.0004785-23.0574163-24.4602871-40.1942584-48.3842105-40.52488041-3.3918661-.04688995-4.4913876-.0076555-6.2799043.22344497m11.0688995 2.17751197c29.9904306 3.67177033 48.9511962 32.89282297 40.0449761 61.71531097-4.477512 14.4889952-16.477512 26.4770335-31.0779905 31.0449761-23.2933014 7.2885166-48.161244-4.0440191-58.04641145-26.4511962-6.55645933-14.8622009-4.52727273-34.3444976 4.85071775-46.5760765.0631579-.0822967.4971291-.654067.9645933-1.2708134 10.022488-13.2248804 26.9703349-20.45693782 43.2641148-18.46220097m-7.7794258 2.40622009c-29.054067 1.65741627-49.01435411 30.04545458-40.65933019 57.82631578 8.63492819 28.7090909 42.41052629 41.0976078 67.57320579 24.7837321 1.1794258-.7645933 1.8019138-1.2076555 3.1363636-2.2339713 2.837799-2.1822967 6.0248804-5.4057417 8.0832536-8.1751196.3665072-.4933015.707177-.9306221.7569378-.9717704.3066985-.254067 2.8822966-4.4507177 3.5645933-5.8090909 14.9066981-29.6679426-5.8626795-64.55406697-38.9411483-65.40956936-1.3980862-.03636364-2.9794259-.04066986-3.5138756-.01052632m6.3545454 4.1c34.3669857 3.24162678 49.4837316 45.54401918 24.9770335 69.89521528-22.4263158 22.2842103-59.8239234 12.1373206-68.6086124-18.615311-1.28755985-4.5076555-1.69617229-12.5808612-.85406703-16.8760765.07464115-.3808613.24545455-1.2645933.37990433-1.9636364 3.8598086-20.1023923 23.3023923-34.40239234 44.1057416-32.44019138m-7.1019139 4.47272728c-1.5234449.1411483-3.7956937.5244019-5.5220095.930622-3.3334929.7842105-3.3535886 1.0425837-.2952153 3.8023923 3.1373205 2.831579 5.9511961 6.0105264 7.9866028 9.0224881 1.3019139 1.9263158 1.3086125 1.9511962.523445 1.9511962-1.2789474 0-2.4177034-.638756-4.4444976-2.4933015-3.838756-3.5119617-10.1923445-7.9956938-12.1808613-8.5956938-1.115311-.3363636-5.107177 2.3559809-8.4803827 5.7200957-2.4870814 2.4799043-2.7100479 2.9631579-1.6205742 3.515311 3.5923445 1.8215311 12.9688995 8.5741627 12.9688995 9.3401914 0 .9014354-2.1545454.5449761-5.0090909-.8291866-5.7679426-2.7770335-11.2708134-4.5358851-12.3622009-3.9516746-.723445.3870813-2.9598086 5.7483253-3.7679426 9.0315789-1.0822967 4.3980862-1.0062201 4.600957 1.9320574 5.1722488 11.7617225 2.285646 18.791866 8.3272728 20.7751196 17.854067.4411483 2.1172249.2870814 2.9224881-.6406698 3.354067-.7674642.3569378-.9971292.2779904-5.9038278-2.0291866l-2.6583732-1.2497608h-5.6889952-5.6885168l-.4373205.4368421c-.8344498.8349283-.7521531 1.0306221 1.7559808 4.1574163 1.0330144 1.2875598 2.585646 3.4210526 3.4511962 4.7416268 1.9909091 3.0392345 1.5679426 2.7751196 4.4454545 2.7751196 2.738756 0 2.2813398.1444976 5.4607656-1.7272727l2.0186603-1.1885167 17.4263158-.0392345c20.2799043-.0454545 18.0851674-.2569378 18.0851674 1.7416268 0 1.968421.5291866 2.0669856 4.4105263.8215311 3.1555024-1.0124402 7.7837321-4.0052632 8.0918661-5.2325359.4287081-1.7066986-7.0200957-6.0028708-11.1569378-6.4349282-1.1143541-.116268-1.2966507.0985646-1.3698565 1.6167464-.0717703 1.491866-.2961722 1.7703349-1.4263158 1.7703349-.6526315 0-.8746411-.068421-1.1669856-.3607655-.723445-.723445-.7200957-.7607656.430622-5.2708134 4.2923445-16.8196173 2.223445-30.654067-6.1861244-41.3736842-1.3411483-1.7090909-5.9889952-6.3736842-6.7287081-6.7526316-.600957-.3076555-4.7172249-.4401914-7.0272728-.2263158m11.6626795 40.9956938c2.8660287 1.3248804 3.6019138 4.8980861 1.4851674 7.2138756-2.8655502 3.1358851-7.9148325 1.1808612-7.9148325-3.0641149 0-3.383732 3.3746411-5.5617224 6.4296651-4.1497607" fill-rule="evenodd"/></svg>