<svg enable-background="new 0 0 612 612" height="20" viewBox="0 0 612 612" width="20" xmlns="http://www.w3.org/2000/svg"><path d="m517.3 164.1c-55.8-32.5-130.7-54.4-212-54.4s-155.5 21.9-211.3 54.4c-57.3 33.9-94 81.3-94 128.6 0 46.7 36 93.3 94 127.2 55.1 32.5 130 53.7 211.3 53.7s156.9-21.2 212-53.7c58-33.9 94.7-80.6 94.7-127.2 0-48-36.7-94.7-94.7-128.6zm-64.3 44.5 12-29.7 13.4 29.7 58.7 12-58.7 12.1-12 32.5-13.4-32.5-53.7-12.1zm-20.5 100.4-58.7 13.4-12 31.1-13.4-32.5-53.7-12 53.7-12 12-29.7 13.4 29.7zm-393.6-52.3 125.8-26.9 28.2-72.1 29.7 68.6 137.8 30.4-136.4 28.2-29.7 75-29.6-76.4zm230.4 146.3-12.1 31.8-13.4-33.2-53.7-10.6 53.7-12.1 12-31.1 13.5 29.7 57.9 13.5zm155.4-10.6-13.4 31.8-13.4-31.8-52.3-12 52.3-12.1 13.4-29.6 12 28.2 60.1 13.5zm91.2-70-12 31.1-13.5-32.5-52.2-12 52.2-12 13.5-29.7 12 29.7 58.6 12z"/></svg>