<svg enable-background="new 0 0 100 100" height="20" viewBox="0 0 100 100" width="20" xmlns="http://www.w3.org/2000/svg"><path d="m90.1 20 2.4-2.4c1.7 2.2 3.1 4.6 4.6 7.1h1.9v-23.6h-23.7v1.9c2.5 1.3 4.7 2.8 6.9 4.6l-2.4 2.4c-8.3-6.4-18.6-10-29.8-10-27.7 0-50 22.3-50 50s22.3 50 50 50 50-22.3 50-50c0-11.3-3.8-21.7-9.9-30zm-3.6 39c-4.1 16.3-18.9 28.6-36.5 28.6s-32.5-12.1-36.5-28.6zm-73.1-18.1c4.1-16.4 18.9-28.6 36.5-28.6s32.5 12.1 36.5 28.6zm63.3 8.9c0-1.7.9-3.3 2.4-3.3 1.4 0 2.2 1.6 2.2 3.5 0 1.7-.8 3.5-2.4 3.5-1.6-.2-2.2-1.9-2.2-3.7zm-41.5 0c0-1.7.9-3.3 2.4-3.3 1.4 0 2.2 1.6 2.2 3.5 0 1.7-.8 3.5-2.4 3.5-1.6-.2-2.2-1.9-2.2-3.7zm2.4-4.8c4.4 0 6.6 2.2 6.6 4.9s-2.2 4.9-6.6 4.9-6.6-2.3-6.6-5 2.2-4.8 6.6-4.8zm-13.5 7.4 3.1-5.8h-1.9v-1.4h6.4v1.4h-2.2l-4.2 7.9h-5l-4.4-7.9h-2.2v-1.4h9.4v1.4h-2.2zm55-7.4c4.4 0 6.6 2.2 6.6 4.9s-2.2 4.9-6.6 4.9-6.6-2.2-6.6-4.9 2.2-4.9 6.6-4.9zm-21.6 1.7h-2.2v-1.4h9.4v1.4h-2.2l3.1 5.8 3.1-5.8h-1.7v-1.4h6.4v1.4h-2.2l-4.2 7.9h-5c-.1 0-4.5-7.9-4.5-7.9zm-10.7 0h-2.2v-1.4h8.6v1.4h-2.2v6.4h2c1.9 0 3-1.3 3-2.8h1.4v4.4h-12.8v-1.4h2.2z"/></svg>